<svg width="151" height="96" viewBox="0 0 151 96" fill="none" xmlns="http://www.w3.org/2000/svg">
<rect x="3.89653" y="12.2803" width="141" height="70" rx="5" fill="#1EAD88"/>
<path d="M75.946 25.3383C88.7938 21.4208 101.178 24.7153 112.818 29.7809C118.64 32.3142 124.247 35.2769 129.63 37.9895C134.872 40.6304 139.904 43.033 144.664 44.5309L144.708 55.2476C144.678 55.2278 144.647 55.2074 144.616 55.1868C144.049 54.8145 143.226 54.2888 142.204 53.6723C140.16 52.4399 137.309 50.8433 134.086 49.3873C130.865 47.9322 127.258 46.6105 123.702 45.9398C120.152 45.27 116.61 45.2406 113.551 46.4163C109.171 48.0999 106.952 51.0928 104.943 54.2657C102.927 57.45 101.137 60.7749 97.6106 63.427C82.9908 74.4208 65.6736 74.2318 48.9507 69.6902C32.3462 65.1807 16.4289 56.4081 4.47165 50.1656L4.5375 42.9263C5.99007 43.6342 8.23731 44.2671 10.9857 44.7725C14.3008 45.3822 18.4156 45.8223 22.904 45.9793C31.8739 46.2931 42.3893 45.4771 51.0382 42.589C56.9767 40.6059 60.351 37.1017 63.6608 33.7218C66.9695 30.343 70.2168 27.0852 75.946 25.3383Z" fill="#46F1C5" stroke="#46F1C5"/>
<g filter="url(#filter0_d_29_431)">
<path d="M18.726 24.7348C18.6749 24.303 18.4675 23.9678 18.1039 23.7291C17.7402 23.4905 17.2942 23.3712 16.7658 23.3712C16.3794 23.3712 16.0414 23.4337 15.7516 23.5587C15.4647 23.6837 15.2402 23.8556 15.0783 24.0743C14.9192 24.2931 14.8397 24.5416 14.8397 24.82C14.8397 25.053 14.8951 25.2533 15.0059 25.4209C15.1195 25.5857 15.2644 25.7235 15.4405 25.8343C15.6167 25.9422 15.8013 26.0317 15.9945 26.1027C16.1877 26.1709 16.3652 26.2263 16.5272 26.2689L17.4135 26.5075C17.6408 26.5672 17.8936 26.6496 18.1721 26.7547C18.4533 26.8598 18.7218 27.0033 18.9775 27.1851C19.236 27.3641 19.449 27.5942 19.6167 27.8754C19.7843 28.1567 19.8681 28.5019 19.8681 28.911C19.8681 29.3825 19.7445 29.8087 19.4973 30.1894C19.253 30.57 18.8951 30.8726 18.4235 31.097C17.9547 31.3215 17.3851 31.4337 16.7147 31.4337C16.0897 31.4337 15.5485 31.3328 15.0911 31.1311C14.6365 30.9294 14.2786 30.6482 14.0172 30.2874C13.7587 29.9266 13.6124 29.5075 13.5783 29.0303H14.6692C14.6976 29.3598 14.8084 29.6325 15.0016 29.8485C15.1976 30.0615 15.4448 30.2206 15.7431 30.3257C16.0442 30.428 16.3681 30.4791 16.7147 30.4791C17.1181 30.4791 17.4803 30.4138 17.8013 30.2831C18.1223 30.1496 18.3766 29.9649 18.5641 29.7291C18.7516 29.4905 18.8453 29.2121 18.8453 28.8939C18.8453 28.6041 18.7644 28.3683 18.6025 28.1865C18.4405 28.0047 18.2275 27.857 17.9632 27.7433C17.699 27.6297 17.4135 27.5303 17.1067 27.445L16.0328 27.1382C15.351 26.9422 14.8113 26.6624 14.4135 26.2987C14.0158 25.9351 13.8169 25.4593 13.8169 24.8712C13.8169 24.3825 13.949 23.9564 14.2132 23.5928C14.4803 23.2263 14.8382 22.9422 15.2871 22.7405C15.7388 22.536 16.2431 22.4337 16.7999 22.4337C17.3624 22.4337 17.8624 22.5345 18.2999 22.7362C18.7374 22.9351 19.084 23.2078 19.3397 23.5544C19.5982 23.901 19.7346 24.2945 19.7488 24.7348H18.726ZM21.6056 31.2803V22.553H24.5545C25.2392 22.553 25.7988 22.6766 26.2335 22.9237C26.671 23.1681 26.9949 23.499 27.2051 23.9166C27.4153 24.3343 27.5204 24.8002 27.5204 25.3144C27.5204 25.8286 27.4153 26.2959 27.2051 26.7164C26.9977 27.1368 26.6767 27.472 26.242 27.722C25.8074 27.9692 25.2505 28.0928 24.5716 28.0928H22.4579V27.1553H24.5375C25.0062 27.1553 25.3826 27.0743 25.6667 26.9124C25.9508 26.7504 26.1568 26.5317 26.2846 26.2561C26.4153 25.9777 26.4806 25.6638 26.4806 25.3144C26.4806 24.9649 26.4153 24.6524 26.2846 24.3769C26.1568 24.1013 25.9494 23.8854 25.6625 23.7291C25.3755 23.57 24.9949 23.4905 24.5204 23.4905H22.6625V31.2803H21.6056ZM28.6902 31.2803H27.5822L30.7868 22.553H31.8777L35.0822 31.2803H33.9743L31.3663 23.9337H31.2981L28.6902 31.2803ZM29.0993 27.8712H33.5652V28.8087H29.0993V27.8712ZM34.801 22.553H36.0112L38.4316 26.6269H38.5339L40.9544 22.553H42.1646L39.0112 27.6837V31.2803H37.9544V27.6837L34.801 22.553Z" fill="white"/>
</g>
<path d="M103.78 67.4621V73.2803H102.726V68.4877H102.692L101.331 69.357V68.3911L102.777 67.4621H103.78ZM105.152 72.2007V71.3627L107.621 67.4621H108.32V68.6553H107.894L106.232 71.2888V71.3343H109.678V72.2007H105.152ZM107.928 73.2803V71.945L107.939 71.57V67.4621H108.933V73.2803H107.928ZM111.64 72.4848L111.603 72.7973C111.577 73.036 111.529 73.2784 111.461 73.5246C111.395 73.7727 111.325 74.0009 111.251 74.2093C111.177 74.4176 111.117 74.5814 111.072 74.7007H110.379C110.405 74.5852 110.441 74.428 110.487 74.2291C110.534 74.0303 110.58 73.8068 110.623 73.5587C110.667 73.3106 110.696 73.0587 110.711 72.803L110.731 72.4848H111.64ZM114.705 73.3911C114.237 73.3911 113.835 73.2727 113.5 73.036C113.167 72.7973 112.91 72.4536 112.73 72.0047C112.552 71.5539 112.463 71.0113 112.463 70.3769C112.465 69.7424 112.555 69.2026 112.733 68.7575C112.913 68.3106 113.17 67.9697 113.503 67.7348C113.838 67.5 114.239 67.3825 114.705 67.3825C115.171 67.3825 115.571 67.5 115.906 67.7348C116.242 67.9697 116.498 68.3106 116.676 68.7575C116.856 69.2045 116.946 69.7443 116.946 70.3769C116.946 71.0132 116.856 71.5568 116.676 72.0075C116.498 72.4564 116.242 72.7992 115.906 73.036C115.573 73.2727 115.173 73.3911 114.705 73.3911ZM114.705 72.5019C115.068 72.5019 115.355 72.3229 115.566 71.9649C115.778 71.6051 115.884 71.0757 115.884 70.3769C115.884 69.9147 115.835 69.5265 115.739 69.2121C115.642 68.8977 115.506 68.661 115.33 68.5019C115.154 68.3409 114.945 68.2604 114.705 68.2604C114.343 68.2604 114.057 68.4403 113.847 68.8002C113.637 69.1581 113.531 69.6837 113.529 70.3769C113.527 70.8409 113.573 71.231 113.668 71.5473C113.764 71.8636 113.901 72.1022 114.077 72.2632C114.253 72.4223 114.462 72.5019 114.705 72.5019ZM120.041 73.3911C119.573 73.3911 119.171 73.2727 118.836 73.036C118.503 72.7973 118.246 72.4536 118.066 72.0047C117.888 71.5539 117.799 71.0113 117.799 70.3769C117.801 69.7424 117.891 69.2026 118.069 68.7575C118.249 68.3106 118.506 67.9697 118.839 67.7348C119.174 67.5 119.575 67.3825 120.041 67.3825C120.507 67.3825 120.907 67.5 121.242 67.7348C121.578 67.9697 121.834 68.3106 122.012 68.7575C122.192 69.2045 122.282 69.7443 122.282 70.3769C122.282 71.0132 122.192 71.5568 122.012 72.0075C121.834 72.4564 121.578 72.7992 121.242 73.036C120.909 73.2727 120.509 73.3911 120.041 73.3911ZM120.041 72.5019C120.404 72.5019 120.691 72.3229 120.902 71.9649C121.114 71.6051 121.22 71.0757 121.22 70.3769C121.22 69.9147 121.171 69.5265 121.075 69.2121C120.978 68.8977 120.842 68.661 120.666 68.5019C120.49 68.3409 120.281 68.2604 120.041 68.2604C119.679 68.2604 119.393 68.4403 119.183 68.8002C118.973 69.1581 118.866 69.6837 118.865 70.3769C118.863 70.8409 118.909 71.231 119.004 71.5473C119.1 71.8636 119.237 72.1022 119.413 72.2632C119.589 72.4223 119.798 72.5019 120.041 72.5019ZM125.377 73.3911C124.909 73.3911 124.507 73.2727 124.172 73.036C123.839 72.7973 123.582 72.4536 123.402 72.0047C123.224 71.5539 123.135 71.0113 123.135 70.3769C123.137 69.7424 123.227 69.2026 123.405 68.7575C123.585 68.3106 123.842 67.9697 124.175 67.7348C124.51 67.5 124.911 67.3825 125.377 67.3825C125.843 67.3825 126.243 67.5 126.578 67.7348C126.914 67.9697 127.17 68.3106 127.348 68.7575C127.528 69.2045 127.618 69.7443 127.618 70.3769C127.618 71.0132 127.528 71.5568 127.348 72.0075C127.17 72.4564 126.914 72.7992 126.578 73.036C126.245 73.2727 125.844 73.3911 125.377 73.3911ZM125.377 72.5019C125.74 72.5019 126.027 72.3229 126.237 71.9649C126.45 71.6051 126.556 71.0757 126.556 70.3769C126.556 69.9147 126.507 69.5265 126.411 69.2121C126.314 68.8977 126.178 68.661 126.002 68.5019C125.826 68.3409 125.617 68.2604 125.377 68.2604C125.015 68.2604 124.729 68.4403 124.519 68.8002C124.308 69.1581 124.202 69.6837 124.201 70.3769C124.199 70.8409 124.245 71.231 124.34 71.5473C124.436 71.8636 124.573 72.1022 124.749 72.2632C124.925 72.4223 125.134 72.5019 125.377 72.5019ZM132.421 74.0075V66.7348H132.887V74.0075H132.421ZM133.765 69.0615C133.739 68.8134 133.627 68.6202 133.43 68.482C133.235 68.3437 132.981 68.2746 132.669 68.2746C132.449 68.2746 132.26 68.3077 132.103 68.374C131.946 68.4403 131.826 68.5303 131.742 68.6439C131.659 68.7575 131.616 68.8873 131.615 69.0331C131.615 69.1543 131.642 69.2594 131.697 69.3485C131.754 69.4375 131.83 69.5132 131.927 69.5757C132.024 69.6363 132.131 69.6875 132.248 69.7291C132.366 69.7708 132.484 69.8058 132.603 69.8343L133.149 69.9706C133.368 70.0218 133.58 70.0909 133.782 70.178C133.987 70.2651 134.169 70.375 134.33 70.5075C134.493 70.6401 134.622 70.8002 134.717 70.9877C134.812 71.1752 134.859 71.3949 134.859 71.6468C134.859 71.9877 134.772 72.2878 134.598 72.5473C134.423 72.8049 134.171 73.0066 133.842 73.1524C133.514 73.2964 133.117 73.3683 132.652 73.3683C132.199 73.3683 131.806 73.2983 131.473 73.1581C131.141 73.018 130.882 72.8134 130.694 72.5445C130.509 72.2755 130.408 71.9479 130.393 71.5615H131.43C131.445 71.7642 131.508 71.9327 131.617 72.0672C131.727 72.2017 131.87 72.3021 132.046 72.3683C132.224 72.4346 132.423 72.4678 132.643 72.4678C132.872 72.4678 133.073 72.4337 133.245 72.3655C133.419 72.2954 133.556 72.1988 133.654 72.0757C133.753 71.9507 133.803 71.8049 133.805 71.6382C133.803 71.4867 133.759 71.3617 133.671 71.2632C133.584 71.1628 133.462 71.0795 133.305 71.0132C133.15 70.945 132.968 70.8844 132.759 70.8314L132.098 70.661C131.618 70.5378 131.24 70.3513 130.961 70.1013C130.685 69.8494 130.546 69.5151 130.546 69.0985C130.546 68.7557 130.639 68.4555 130.825 68.1979C131.012 67.9403 131.267 67.7405 131.589 67.5985C131.911 67.4545 132.276 67.3825 132.683 67.3825C133.096 67.3825 133.457 67.4545 133.768 67.5985C134.08 67.7405 134.326 67.9384 134.504 68.1922C134.682 68.4441 134.774 68.7339 134.779 69.0615H133.765Z" fill="white"/>
<defs>
<filter id="filter0_d_29_431" x="9.5783" y="18.4337" width="36.5863" height="17" filterUnits="userSpaceOnUse" color-interpolation-filters="sRGB">
<feFlood flood-opacity="0" result="BackgroundImageFix"/>
<feColorMatrix in="SourceAlpha" type="matrix" values="0 0 0 0 0 0 0 0 0 0 0 0 0 0 0 0 0 0 127 0" result="hardAlpha"/>
<feOffset/>
<feGaussianBlur stdDeviation="2"/>
<feComposite in2="hardAlpha" operator="out"/>
<feColorMatrix type="matrix" values="0 0 0 0 0.27451 0 0 0 0 0.945098 0 0 0 0 0.772549 0 0 0 1 0"/>
<feBlend mode="normal" in2="BackgroundImageFix" result="effect1_dropShadow_29_431"/>
<feBlend mode="normal" in="SourceGraphic" in2="effect1_dropShadow_29_431" result="shape"/>
</filter>
</defs>
</svg>
